<svg width="185" height="67" viewBox="0 0 185 67" fill="none" xmlns="http://www.w3.org/2000/svg">
<path d="M165.259 17.8993C164.031 17.8993 163.515 19.0132 163.435 19.8208H166.889C166.905 19.0935 166.582 17.8993 165.259 17.8993V17.8993ZM88.0432 22.2092C88.0432 22.9835 88.5439 23.3392 89.1725 23.3392C89.98 23.3392 90.5446 22.8229 90.7387 22.2574C90.7867 22.1128 90.7867 21.9672 90.7867 21.8215V20.7408C89.3831 20.7248 88.0432 21.015 88.0432 22.2092V22.2092ZM126.247 17.9796C124.842 17.9796 124.278 19.3516 124.278 20.6594C124.278 22.1771 125.036 23.3231 126.231 23.3231C127.36 23.3231 128.152 22.2253 128.152 20.6273C128.152 19.4009 127.602 17.9796 126.247 17.9796ZM112.909 17.8993C111.683 17.8993 111.166 19.0132 111.085 19.8208H114.539C114.555 19.0935 114.232 17.8993 112.909 17.8993ZM98.6187 18.0932C97.8122 18.0932 97.0691 18.6748 96.8599 19.5455C96.8263 19.6912 96.7936 19.8678 96.7936 20.0629V21.3374C96.7936 21.4991 96.8106 21.6609 96.8429 21.8066C97.0526 22.613 97.7471 23.1935 98.6018 23.1935C99.8452 23.1935 100.604 22.2092 100.604 20.6124C100.604 19.2231 99.9415 18.0932 98.6187 18.0932V18.0932ZM168.711 43.7637H158.535C158.576 45.2694 159.068 46.4166 160.013 47.2106C160.869 47.9245 161.977 48.2807 163.34 48.2807C164.849 48.2807 166.217 48.0409 167.453 47.5526L167.987 49.9105C166.548 50.5437 164.838 50.8507 162.866 50.8507C160.505 50.8507 158.647 50.1583 157.296 48.7669C155.947 47.3756 155.267 45.507 155.267 43.1642C155.267 40.8575 155.898 38.9463 157.151 37.4114C158.476 35.7802 160.255 34.9657 162.491 34.9657C164.696 34.9657 166.358 35.7802 167.484 37.4114C168.381 38.7135 168.835 40.3161 168.835 42.2226C168.835 42.825 168.791 43.338 168.711 43.7637V43.7637ZM154.714 19.8678V24.5815H152.731V13.1225H154.714V17.7869H154.747C154.988 17.4152 155.328 17.1089 155.732 16.899C156.134 16.6718 156.604 16.5434 157.104 16.5434C158.444 16.5434 159.849 17.4313 159.849 19.9493V24.5815H157.862V20.1592C157.862 19.0293 157.442 18.1574 156.345 18.1574C155.57 18.1574 155.022 18.6748 154.797 19.2713C154.731 19.4491 154.714 19.6591 154.714 19.8678V19.8678ZM154.2 38.2925C153.866 38.2317 153.506 38.2053 153.132 38.2053C151.939 38.2053 151.02 38.6561 150.37 39.5532C149.803 40.3516 149.522 41.3416 149.522 42.5651V50.5715H146.131V40.1107C146.131 38.3613 146.1 36.7598 146.04 35.3098H148.991L149.117 38.2317H149.21C149.565 37.2302 150.127 36.4214 150.906 35.8192C151.659 35.2685 152.479 35.0035 153.358 35.0035C153.669 35.0035 153.954 35.0207 154.2 35.0609V38.2925ZM145.496 16.7212H146.609V15.2528L148.563 14.7033V16.7212H150.45V18.2056H148.563V21.6769C148.563 22.6451 148.821 23.1292 149.579 23.1292C149.934 23.1292 150.128 23.112 150.354 23.0489L150.387 24.5494C150.096 24.6618 149.563 24.7594 148.951 24.7594C148.207 24.7594 147.61 24.5173 147.239 24.1147C146.803 23.6615 146.609 22.9354 146.609 21.9029V18.2056H145.496V16.7212ZM141.991 48.5989C140.585 50.1435 138.722 50.9165 136.403 50.9165C134.159 50.9165 132.37 50.1749 131.041 48.6885C129.714 47.2052 129.052 45.3241 129.052 43.067C129.052 40.7026 129.736 38.7651 131.107 37.2589C132.48 35.7469 134.322 35.0035 136.645 35.0035C138.894 35.0035 140.692 35.7389 142.053 37.2325C143.347 38.6687 143.996 40.5375 143.996 42.8169C143.996 45.1686 143.331 47.0865 141.991 48.5989V48.5989ZM126.166 24.7594C123.955 24.7594 122.228 23.2417 122.228 20.7087C122.228 18.1253 123.922 16.5434 126.295 16.5434C128.636 16.5434 130.202 18.1907 130.202 20.5791C130.202 23.4688 128.168 24.7594 126.166 24.7594V24.7594ZM128.078 37.8508H124.336V45.2694C124.336 47.1514 125 48.0858 126.32 48.0858C126.926 48.0858 127.424 48.0409 127.826 47.9379L127.922 50.5065C127.251 50.7574 126.373 50.8843 125.285 50.8843C123.952 50.8843 122.898 50.4819 122.146 49.6596C121.386 48.8476 121.01 47.4741 121.01 45.5482V37.8508H118.784V35.3098H121.01V32.5165L124.336 31.5127V35.3098H128.078V37.8508ZM116.124 49.0313C114.739 50.268 112.819 50.882 110.357 50.882C108.075 50.882 106.25 50.4406 104.872 49.5654L105.66 46.7402C107.145 47.6152 108.777 48.059 110.552 48.059C111.834 48.059 112.826 47.7677 113.539 47.1963C114.247 46.6227 114.603 45.8542 114.603 44.8796C114.603 44.0326 114.309 43.3098 113.727 42.7205C113.135 42.1343 112.17 41.5951 110.807 41.0881C107.106 39.7103 105.252 37.689 105.252 35.0322C105.252 33.2943 105.898 31.8672 107.209 30.7579C108.517 29.652 110.249 29.0956 112.408 29.0956C114.333 29.0956 115.935 29.4329 117.214 30.0983L116.359 32.8618C115.166 32.2159 113.81 31.8878 112.297 31.8878C111.102 31.8878 110.164 32.1918 109.49 32.7631C108.926 33.2943 108.643 33.9332 108.643 34.6846C108.643 35.5163 108.968 36.2092 109.615 36.7621C110.182 37.2612 111.208 37.8038 112.689 38.3888C114.517 39.115 115.852 39.9799 116.713 40.9665C117.569 41.9496 118 43.1723 118 44.6354C118 46.4367 117.371 47.9065 116.124 49.0313V49.0313ZM99.0548 24.7594C98.0371 24.7594 97.1333 24.3728 96.5686 23.4034H96.5359L96.44 24.5815H94.7448C94.7771 24.0493 94.8098 23.1774 94.8098 22.3698V13.1225H96.7936V17.8029H96.8263C97.3103 17.0435 98.1662 16.5434 99.3446 16.5434C101.266 16.5434 102.637 18.1414 102.621 20.5298C102.621 23.3552 100.83 24.7594 99.0548 24.7594V24.7594ZM96.7255 48.9126C95.4617 50.2466 93.897 50.9165 92.0212 50.9165C90.0016 50.9165 88.5497 50.1964 87.6682 48.7468V56.7612H84.2756V40.3252C84.2756 38.6928 84.2321 37.0237 84.1506 35.3098H87.1255L87.3218 37.728H87.3801C88.5183 35.9132 90.2287 35.0035 92.5312 35.0035C94.3326 35.0035 95.8346 35.709 97.0378 37.1361C98.2445 38.5563 98.8451 40.4342 98.8451 42.7555C98.8451 45.359 98.1401 47.4024 96.7255 48.9126ZM83.4882 24.5815H81.5041V13.1225H83.4882V24.5815ZM79.9594 48.9126C78.6988 50.2466 77.1273 50.9165 75.2565 50.9165C73.2309 50.9165 71.7814 50.1964 70.8994 48.7468V56.7612H67.5108V40.3252C67.5108 38.6928 67.4669 37.0237 67.3809 35.3098H70.364L70.5513 37.728H70.6105C71.7469 35.9132 73.4604 35.0035 75.7664 35.0035C77.5664 35.0035 79.0645 35.709 80.2753 37.1361C81.4749 38.5563 82.0789 40.4342 82.0789 42.7555C82.0789 45.359 81.3741 47.4024 79.9594 48.9126ZM66.6819 22.4191C66.6819 20.4495 68.4407 19.4331 71.3467 19.4491V19.3195C71.3467 18.8044 71.1361 17.9475 69.7478 17.9475C68.9726 17.9475 68.1674 18.1907 67.634 18.5291L67.2464 17.2374C67.8268 16.8829 68.844 16.5434 70.0875 16.5434C72.6045 16.5434 73.3318 18.1414 73.3318 19.8678V22.6933C73.3318 23.4034 73.3632 24.0974 73.4604 24.5815H71.6679L71.5237 23.7108H71.4753C71.0071 24.3234 70.1838 24.7594 69.1509 24.7594C67.5691 24.7594 66.6819 23.6145 66.6819 22.4191V22.4191ZM62.5951 24.5815H60.6413L57.7197 16.7212H59.8669L61.141 20.7087C61.3672 21.4027 61.5286 22.0325 61.6742 22.6784H61.7235C61.8678 22.0325 62.0461 21.4177 62.2555 20.7087L63.5146 16.7212H65.5974L62.5951 24.5815ZM61.8243 50.5715L59.8481 44.3598H52.9696L51.0831 50.5715H47.5699L54.3776 29.4088H58.5898L65.4384 50.5715H61.8243ZM37.8616 49.776C37.8616 51.6931 36.2986 53.2467 34.3834 53.2467H19.4756C17.5577 53.2467 15.9951 51.6931 15.9951 49.776V16.6489C15.9951 14.7331 17.5577 13.1741 19.4756 13.1741H34.3834C36.2986 13.1741 37.8616 14.7331 37.8616 16.6489V49.776ZM51.0817 13.703H53.6158L57.1506 24.5815H55.0041L54.0204 21.4991H50.5812L49.6447 24.5815H47.5946L51.0817 13.703ZM78.3865 16.7212V24.5815H76.4027V16.7212H78.3865ZM77.403 13.4449C78.0805 13.4449 78.5008 13.9129 78.5165 14.5255C78.5165 15.1071 78.0805 15.5912 77.3859 15.5912C76.7241 15.5912 76.2894 15.1071 76.2894 14.5255C76.2894 13.9129 76.7406 13.4449 77.403 13.4449ZM89.1412 17.9475C88.3659 17.9475 87.5594 18.1907 87.027 18.5291L86.6394 17.2374C87.2197 16.8829 88.2373 16.5434 89.4795 16.5434C91.9979 16.5434 92.7252 18.1414 92.7252 19.8678V22.6933C92.7252 23.4034 92.7561 24.0974 92.8524 24.5815H91.0613L90.9165 23.7108H90.8686C90.4003 24.3234 89.5768 24.7594 88.5439 24.7594C86.9611 24.7594 86.0739 23.6145 86.0739 22.4191C86.0739 20.4495 87.8327 19.4331 90.7387 19.4491V19.3195C90.7387 18.8044 90.5281 17.9475 89.1412 17.9475V17.9475ZM104.886 13.1225H106.87V24.5815H104.886V13.1225ZM113.022 16.5434C115.572 16.5434 116.413 18.6415 116.413 20.3692C116.413 20.7408 116.379 21.0311 116.347 21.2089H111.085C111.133 22.6291 112.231 23.2417 113.506 23.2417C114.426 23.2417 115.072 23.0971 115.685 22.8872L115.976 24.2431C115.298 24.5334 114.362 24.7433 113.232 24.7433C110.682 24.7433 109.181 23.1774 109.181 20.773C109.181 18.5933 110.504 16.5434 113.022 16.5434ZM133.869 16.7212L133.965 17.8993H134.015C134.369 17.2856 135.225 16.5434 136.533 16.5434C137.905 16.5434 139.325 17.4313 139.325 19.9172V24.5815H137.34V20.142C137.34 19.0132 136.919 18.1574 135.839 18.1574C135.048 18.1574 134.499 18.723 134.288 19.3195C134.224 19.4812 134.191 19.7233 134.191 19.9493V24.5815H132.207V19.0625C132.207 18.1574 132.175 17.3991 132.141 16.7212H133.869ZM165.371 16.5434C167.921 16.5434 168.761 18.6415 168.761 20.3692C168.761 20.7408 168.729 21.0311 168.697 21.2089H163.435C163.483 22.6291 164.581 23.2417 165.855 23.2417C166.775 23.2417 167.421 23.0971 168.034 22.8872L168.324 24.2431C167.647 24.5334 166.711 24.7433 165.581 24.7433C163.031 24.7433 161.531 23.1774 161.531 20.773C161.531 18.5933 162.853 16.5434 165.371 16.5434ZM52.8419 17.3188C52.6313 16.6558 52.4543 15.9136 52.293 15.2849H52.2594C52.0989 15.9136 51.9211 16.6718 51.7432 17.3188L50.9047 19.9986H53.6965L52.8419 17.3188ZM71.3467 22.2574C71.3938 22.1128 71.3938 21.9672 71.3938 21.8215V20.7408C69.9897 20.7248 68.6513 21.015 68.6513 22.2092C68.6513 22.9835 69.1509 23.3392 69.7805 23.3392C70.5872 23.3392 71.1517 22.8229 71.3467 22.2574V22.2574ZM162.241 37.3174C161.134 37.3174 160.234 37.79 159.54 38.7054C158.976 39.4362 158.637 40.3161 158.535 41.337H165.6C165.618 40.3356 165.403 39.4706 164.943 38.7341C164.355 37.7957 163.452 37.3174 162.241 37.3174ZM56.391 32.2354H56.3318C56.1186 33.1348 55.7883 34.4621 55.3236 36.223L53.5648 41.75H59.2463L57.4642 36.223C57.2715 35.6551 56.9117 34.3256 56.391 32.2354V32.2354ZM91.4332 37.6936C90.593 37.6936 89.8425 37.9701 89.1591 38.5242C88.4788 39.0863 88.0321 39.8136 87.8215 40.7141C87.7171 41.1351 87.6682 41.4781 87.6682 41.7523V44.2926C87.6682 45.4038 88.003 46.3427 88.6864 47.1067C89.3652 47.8639 90.2512 48.248 91.3347 48.248C92.6185 48.248 93.6111 47.7595 94.3236 46.7729C95.0369 45.7892 95.3946 44.492 95.3946 42.8751C95.3946 41.3932 95.0571 40.1658 94.3895 39.2067C93.6514 38.2053 92.6664 37.6936 91.4332 37.6936V37.6936ZM136.521 37.4837C135.164 37.4837 134.127 38.086 133.419 39.2985C132.806 40.2966 132.505 41.5137 132.505 42.9558C132.505 44.3598 132.806 45.5571 133.419 46.5578C134.144 47.7677 135.171 48.3703 136.496 48.3703C137.785 48.3703 138.805 47.7595 139.534 46.5197C140.166 45.507 140.481 44.2926 140.481 42.8967C140.481 41.5011 140.178 40.2966 139.575 39.2985C138.853 38.086 137.842 37.4837 136.521 37.4837ZM74.6627 37.6936C73.827 37.6936 73.0719 37.9701 72.3894 38.5242C71.7074 39.0863 71.2647 39.8136 71.0541 40.7141C70.951 41.1351 70.8994 41.4781 70.8994 41.7523V44.2926C70.8994 45.4038 71.2333 46.3427 71.918 47.1067C72.5969 47.8639 73.4829 48.248 74.5695 48.248C75.8435 48.248 76.845 47.7595 77.5553 46.7729C78.2669 45.7892 78.6195 44.492 78.6195 42.8751C78.6195 41.3932 78.2888 40.1658 77.618 39.2067C76.8818 38.2053 75.8995 37.6936 74.6627 37.6936V37.6936ZM18.1089 46.2607H35.7473V20.173H18.1089V46.2607ZM26.9268 47.8013C25.9374 47.8013 25.1308 48.6101 25.1308 49.6027C25.1308 50.5929 25.9374 51.3996 26.9268 51.3996C27.9202 51.3996 28.7246 50.5929 28.7246 49.6027C28.7246 48.6101 27.9202 47.8013 26.9268 47.8013ZM25.1988 17.5116H28.6551C28.8814 17.5116 29.066 17.3257 29.066 17.1101C29.066 16.8806 28.8814 16.6959 28.6551 16.6959H25.1988C24.9793 16.6959 24.7911 16.8806 24.7911 17.1101C24.7911 17.3257 24.9793 17.5116 25.1988 17.5116Z" fill="white"/>
<path d="M8.86006 2.62761C5.23977 2.62761 2.29433 5.57353 2.29433 9.19398V57.2176C2.29433 60.8326 5.23977 63.7735 8.86006 63.7735H175.969C179.59 63.7735 182.536 60.8326 182.536 57.2176V9.19398C182.536 5.57353 179.59 2.62761 175.969 2.62761H8.86006ZM175.969 66.0679H8.86006C3.97474 66.0679 0 62.0975 0 57.2176V9.19398C0 4.30821 3.97474 0.333283 8.86006 0.333283H175.969C180.855 0.333283 184.83 4.30821 184.83 9.19398V57.2176C184.83 62.0975 180.855 66.0679 175.969 66.0679Z" fill="white"/>
</svg>
