<svg width="1365" height="475" viewBox="0 0 1365 475" fill="none" xmlns="http://www.w3.org/2000/svg">
<path fill-rule="evenodd" clip-rule="evenodd" d="M1229.91 97.1092C1230.28 95.779 1231.85 95.2077 1232.98 95.9926L1245.39 104.582C1246.72 105.506 1246.46 107.551 1244.93 108.106L1228.54 114.073C1227.02 114.628 1225.5 113.231 1225.93 111.666L1229.91 97.1092Z" fill="#FFD659"/>
<path fill-rule="evenodd" clip-rule="evenodd" d="M198.914 96.2397C199.894 95.2698 201.539 95.5599 202.129 96.8067L205.131 103.157C205.825 104.624 204.574 106.263 202.976 105.981L194.98 104.571C193.382 104.289 192.767 102.321 193.921 101.18L198.914 96.2397Z" fill="#FF8126"/>
<path fill-rule="evenodd" clip-rule="evenodd" d="M13.4868 220.116C12.5064 221.086 10.8617 220.796 10.2721 219.549L4.51054 207.364C3.8167 205.897 5.0674 204.258 6.6658 204.54L22.0082 207.246C23.6066 207.528 24.2214 209.496 23.0676 210.637L13.4868 220.116Z" fill="#8DD941"/>
<path fill-rule="evenodd" clip-rule="evenodd" d="M1038.61 265.865C1037.82 266.991 1036.15 266.991 1035.35 265.865L1028.03 255.525C1027.09 254.2 1028.04 252.369 1029.66 252.369H1044.31C1045.93 252.369 1046.88 254.2 1045.94 255.525L1038.61 265.865Z" fill="#8AF7DB"/>
<path opacity="0.4" d="M1335.09 422.767L1279.87 406.382L1267.1 453.149" stroke="#E1E6EB" stroke-width="5" stroke-linecap="round" stroke-linejoin="round"/>
<path opacity="0.4" d="M345.361 277.041L312.878 219.575L266.845 264.599" stroke="#E1E6EB" stroke-width="5" stroke-linecap="round" stroke-linejoin="round"/>
<path d="M146.876 465.957C154.859 465.957 161.331 459.485 161.331 451.5C161.331 443.516 154.859 437.043 146.876 437.043C138.893 437.043 132.422 443.516 132.422 451.5C132.422 459.485 138.893 465.957 146.876 465.957Z" fill="#FFD659"/>
<path d="M1351.25 267.292C1358.46 267.292 1364.3 261.446 1364.3 254.234C1364.3 247.023 1358.46 241.176 1351.25 241.176C1344.04 241.176 1338.19 247.023 1338.19 254.234C1338.19 261.446 1344.04 267.292 1351.25 267.292Z" fill="#FF5967"/>
<path d="M638.879 8.4001L626.999 1.53971C626.042 0.987355 624.819 1.31508 624.267 2.27171L617.407 14.1546C616.855 15.1112 617.183 16.3345 618.139 16.8868L630.02 23.7472C630.976 24.2996 632.2 23.9718 632.752 23.0152L639.611 11.1324C640.163 10.1757 639.836 8.95246 638.879 8.4001Z" fill="#FF9E59"/>
</svg>
