<svg width="90" height="90" viewBox="0 0 90 90" fill="none" xmlns="http://www.w3.org/2000/svg">
<path d="M44.6874 40.8267C43.9373 40.8267 43.3291 40.2187 43.3291 39.4685V37.6122C43.3291 36.8622 43.9371 36.254 44.6874 36.254C45.4376 36.254 46.0456 36.862 46.0456 37.6122V39.4685C46.0455 40.2187 45.4374 40.8267 44.6874 40.8267Z" fill="#4B3F4E"/>
<path d="M44.7707 0.705566H23.5369C21.9842 0.705566 20.7256 1.96416 20.7256 3.51684V15.7101C20.7256 17.2628 21.9842 18.5213 23.5369 18.5213H23.6743C24.2618 18.5213 24.7381 18.9977 24.7381 19.5852V23.1442C24.7381 23.7021 25.3868 24.0091 25.8181 23.6552L31.7819 18.7627C31.9721 18.6066 32.2106 18.5213 32.4567 18.5213H44.7709C46.3236 18.5213 47.5821 17.2628 47.5821 15.7101V3.51684C47.582 1.96434 46.3232 0.705566 44.7707 0.705566Z" fill="#F7D4AD"/>
<path d="M45.2292 9.70047H66.4631C68.0157 9.70047 69.2743 10.9591 69.2743 12.5117V25.188C69.2743 26.7407 68.0157 27.9993 66.4631 27.9993H66.3256C65.7382 27.9993 65.2618 28.4757 65.2618 29.0631V32.6222C65.2618 33.1801 64.6132 33.487 64.1818 33.1332L58.2181 28.2406C58.0279 28.0846 57.7893 27.9993 57.5434 27.9993H45.2292C43.6766 27.9993 42.418 26.7407 42.418 25.188V12.5117C42.418 10.9591 43.6767 9.70047 45.2292 9.70047Z" fill="#ECBD83"/>
<path d="M41.1144 5.01959H26.1405C25.3904 5.01959 24.7822 5.62762 24.7822 6.37785C24.7822 7.12809 25.3903 7.73612 26.1405 7.73612H41.1144C41.8645 7.73612 42.4727 7.12809 42.4727 6.37785C42.4727 5.62762 41.8645 5.01959 41.1144 5.01959Z" fill="#E2A876"/>
<path d="M35.9213 10.8977H26.1405C25.3904 10.8977 24.7822 11.5057 24.7822 12.256C24.7822 13.006 25.3903 13.6142 26.1405 13.6142H35.9213C36.6714 13.6142 37.2796 13.0062 37.2796 12.256C37.2794 11.5059 36.6714 10.8977 35.9213 10.8977Z" fill="#E2A876"/>
<path d="M63.0687 14.4371H48.0946C47.3445 14.4371 46.7363 15.0451 46.7363 15.7953C46.7363 16.5454 47.3444 17.1536 48.0946 17.1536H63.0687C63.8187 17.1536 64.427 16.5456 64.427 15.7953C64.4268 15.0451 63.8187 14.4371 63.0687 14.4371Z" fill="#E2A876"/>
<path d="M57.8754 20.3154H48.0946C47.3445 20.3154 46.7363 20.9234 46.7363 21.6736C46.7363 22.4239 47.3444 23.0319 48.0946 23.0319H57.8754C58.6255 23.0319 59.2337 22.4239 59.2337 21.6736C59.2337 20.9234 58.6255 20.3154 57.8754 20.3154Z" fill="#E2A876"/>
<path d="M69.839 54.0126H19.5738C17.6884 54.0126 16.1602 52.4842 16.1602 50.599V48.9765H73.2529V50.599C73.2529 52.4844 71.7244 54.0126 69.839 54.0126Z" fill="#7C5757"/>
<path d="M17.8516 68.1059C17.6948 67.3725 16.9732 66.9048 16.2394 67.0619C15.5058 67.2189 15.0384 67.9407 15.1954 68.6742L19.3772 88.22C19.5136 88.8577 20.077 89.2942 20.704 89.2942C20.7981 89.2942 20.8937 89.2844 20.9895 89.2638C21.723 89.1068 22.1904 88.3851 22.0335 87.6515L17.8516 68.1059Z" fill="#DAD8DB"/>
<path d="M5.82934 67.0619C5.0958 66.9048 4.37404 67.3725 4.21707 68.1059L0.035234 87.6517C-0.121739 88.3853 0.345664 89.107 1.0792 89.264C1.175 89.2846 1.27062 89.2944 1.36467 89.2944C1.9915 89.2944 2.55506 88.8578 2.69146 88.2202L6.8733 68.6744C7.03027 67.9408 6.56287 67.2189 5.82934 67.0619Z" fill="#DAD8DB"/>
<path d="M53.9505 54.0121H35.4629C36.2084 56.2217 37.7226 58.0753 39.6871 59.2565C40.9756 60.0314 41.7898 61.3991 41.7898 62.9026V87.9358H47.3884V63.0525C47.3884 61.5131 48.2373 60.1181 49.5711 59.3492C51.611 58.173 53.1853 56.2797 53.9505 54.0121Z" fill="#DAD8DB"/>
<path d="M50.8966 86.5777H38.5155C37.7654 86.5777 37.1572 87.1857 37.1572 87.936C37.1572 88.6862 37.7653 89.2942 38.5155 89.2942H50.8966C51.6467 89.2942 52.2549 88.6862 52.2549 87.936C52.2549 87.1857 51.6469 86.5777 50.8966 86.5777Z" fill="#C7C5C9"/>
<path d="M20.048 68.3901H2.12748C0.952558 68.3901 0 67.4376 0 66.2627V63.354H22.1755V66.2627C22.1755 67.4376 21.2229 68.3901 20.048 68.3901Z" fill="#FFC269"/>
<path d="M0 63.354V65.655H16.3134C17.824 65.655 19.0485 66.8796 19.0485 68.3901H20.0479C21.2229 68.3901 22.1753 67.4376 22.1753 66.2627V63.354H0Z" fill="#FF8B59"/>
<path d="M28.716 87.9358H25.8281C25.2826 87.9358 24.8214 87.5324 24.7484 86.9918L21.5617 63.3485H7.99771C4.96514 63.3485 2.50684 60.8902 2.50684 57.8577V54.0125H23.2715C26.88 54.0125 29.8053 56.9378 29.8053 60.5462V86.8465C29.8053 87.4482 29.3175 87.9358 28.716 87.9358Z" fill="#5D5260"/>
<path d="M13.6026 23.1857V25.663C13.6026 28.3287 11.444 30.4873 8.78019 30.4873C7.1667 30.4873 5.73971 29.6959 4.86326 28.4808C4.6532 28.1911 4.47566 27.8759 4.33451 27.5409C4.09176 26.965 3.95605 26.3294 3.95605 25.663V23.1857C3.95605 20.5219 6.11641 18.3614 8.78037 18.3614C10.1114 18.3614 11.3174 18.901 12.1903 19.774C12.6901 20.2737 13.0814 20.884 13.3222 21.565C13.5048 22.0702 13.6026 22.6171 13.6026 23.1857Z" fill="#F7D4AD"/>
<path d="M13.322 21.5648L13.2152 21.545L8.8092 23.4464C8.56838 23.5496 8.38363 23.7561 8.30945 24.0096L8.13016 24.6145C8.13016 24.6145 7.78422 27.4811 5.24717 28.3667C5.11498 28.412 4.98648 28.45 4.86326 28.4808C4.6532 28.1911 4.47566 27.8759 4.33451 27.5409C4.09176 26.965 3.95605 26.3294 3.95605 25.663V23.1857C3.95605 20.5219 6.11641 18.3614 8.78037 18.3614C10.1114 18.3614 11.3174 18.901 12.1904 19.774C12.6899 20.2737 13.081 20.884 13.322 21.5648Z" fill="#6E4848"/>
<path d="M89.9651 87.6517L85.7833 68.1059C85.6263 67.3725 84.9045 66.9048 84.171 67.0619C83.4375 67.2189 82.9701 67.9407 83.127 68.6742L87.3089 88.22C87.4453 88.8577 88.0087 89.2942 88.6357 89.2942C88.7297 89.2942 88.8253 89.2844 88.9211 89.2638C89.6547 89.107 90.1221 88.3852 89.9651 87.6517Z" fill="#DAD8DB"/>
<path d="M73.761 67.0619C73.0271 66.9048 72.3057 67.3725 72.1487 68.1059L67.9669 87.6517C67.8099 88.3853 68.2773 89.107 69.0108 89.264C69.1066 89.2846 69.2023 89.2944 69.2963 89.2944C69.9231 89.2944 70.4867 88.8578 70.6231 88.2202L74.8049 68.6744C74.9617 67.9408 74.4943 67.2189 73.761 67.0619Z" fill="#DAD8DB"/>
<path d="M69.9517 68.3901H87.8721C89.0472 68.3901 89.9995 67.4376 89.9995 66.2627V63.354H67.8242V66.2627C67.8242 67.4376 68.7768 68.3901 69.9517 68.3901Z" fill="#FFC269"/>
<path d="M67.8242 63.354V65.478H84.5902C86.1965 65.478 87.4989 66.7802 87.4989 68.3866C87.4989 68.3879 87.4987 68.3891 87.4987 68.3903H87.8722C89.0473 68.3903 89.9997 67.4378 89.9997 66.2628V63.3542H67.8242V63.354Z" fill="#FF8B59"/>
<path d="M87.4934 54.0126V38.624C87.4934 36.1385 86.5066 33.7545 84.7496 31.9964C82.2219 29.4667 77.9302 30.0776 76.397 33.3082L72.7686 39.6195L73.4977 54.0126H87.4934Z" fill="#B8B6FF"/>
<path d="M61.2837 87.9358H64.1716C64.717 87.9358 65.1783 87.5324 65.2512 86.9918L68.4379 63.3485H82.0019C85.0345 63.3485 87.4928 60.8902 87.4928 57.8577V54.0125H66.7281C63.1197 54.0125 60.1943 56.9378 60.1943 60.5462V86.8465C60.1943 87.4482 60.6821 87.9358 61.2837 87.9358Z" fill="#5D5260"/>
<path d="M80.1303 42.2224L73.8398 48.9765H58.3779C58.3779 46.1672 60.4096 43.7697 63.1808 43.3088L71.4362 41.9357L76.7356 32.718C77.2561 32.5796 79.5951 32.012 81.0685 33.2437C82.9054 34.7795 83.0427 38.8163 80.1303 42.2224Z" fill="#A09EEF"/>
<path d="M86.0432 23.1314V25.6087C86.0432 26.5377 85.7806 27.4051 85.326 28.1403C84.4785 29.5147 82.9573 30.4328 81.2206 30.4328C78.5568 30.4328 76.3965 28.2725 76.3965 25.6085V23.1312C76.3965 22.7148 76.449 22.3108 76.5485 21.9252V21.9234C76.7677 21.076 77.2095 20.3189 77.8089 19.7195C78.6836 18.8465 79.8896 18.3069 81.2206 18.3069C83.8846 18.3071 86.0432 20.4657 86.0432 23.1314Z" fill="#F7D4AD"/>
<path d="M86.0433 23.1314V25.6087C86.0433 26.5377 85.7807 27.4051 85.3261 28.1403C84.8879 28.0515 84.4189 27.8849 83.9589 27.5989C82.2494 26.5377 80.7572 24.6144 80.7572 24.6144L80.5762 24.0096C80.502 23.7561 80.319 23.5496 80.0764 23.4464L76.5488 21.9252V21.9234C76.768 21.076 77.2098 20.3189 77.8092 19.7195C78.6839 18.8465 79.8899 18.3069 81.2209 18.3069C83.8847 18.3071 86.0433 20.4657 86.0433 23.1314Z" fill="#6E4848"/>
<path d="M2.50586 53.993V38.6031C2.50586 36.1174 3.49287 33.7333 5.2498 31.975C7.77772 29.4451 12.0698 30.0559 13.6031 33.287L15.4434 39.5232L16.5026 53.9931H2.50586V53.993Z" fill="#B2E59F"/>
<path d="M9.87022 38.7757L20.7474 42.8665L33.5388 38.6184C33.5388 36.1543 31.1561 34.3921 28.7999 35.1139L21.4684 37.3596L11.5155 31.0523C9.61675 30.8626 7.86561 31.8739 7.23544 33.4172C6.44249 35.3587 7.52196 37.9019 9.87022 38.7757Z" fill="#95D5A4"/>
<path d="M35.3164 48.9297C35.3164 43.7542 39.512 39.5587 44.6875 39.5587C49.863 39.5587 54.0585 43.7542 54.0585 48.9297" fill="#FEE07D"/>
</svg>
