<svg width="199" height="67" viewBox="0 0 199 67" fill="none" xmlns="http://www.w3.org/2000/svg">
<path d="M10.5536 2.31552C6.42604 2.31552 3.06609 5.67431 3.06609 9.80303V56.4838C3.06609 60.612 6.42604 63.9715 10.5536 63.9715H188.829C192.956 63.9715 196.315 60.612 196.315 56.4838V9.80303C196.315 5.67431 192.956 2.31552 188.829 2.31552H10.5536ZM188.829 66.2871H10.5536C5.14783 66.2871 0.750488 61.8892 0.750488 56.4838V9.80303C0.750488 4.39725 5.14783 -8.5781e-05 10.5536 -8.5781e-05H188.829C194.233 -8.5781e-05 198.63 4.39725 198.63 9.80303V56.4838C198.63 61.8892 194.233 66.2871 188.829 66.2871" fill="white"/>
<path d="M64.6099 17.0274C64.1422 15.6149 63.9072 14.8508 63.9072 14.735H63.8423C63.8423 14.8415 63.5992 15.6056 63.1152 17.0274H64.6099ZM66.5076 19.3477H65.1935C65.1935 19.167 65.0684 18.6553 64.8195 17.8113H62.9219C62.6649 18.6414 62.5363 19.1531 62.5363 19.3477H61.2998C61.2998 19.2411 61.6193 18.3647 62.2584 16.7195C62.8975 15.0731 63.2171 14.1677 63.2171 13.9998H64.7697C64.7697 14.1561 65.0592 15.0499 65.6392 16.6801C66.2181 18.3103 66.5076 19.1995 66.5076 19.3477" fill="white"/>
<path d="M71.8036 19.3477H70.7893C70.7893 19.2353 70.4131 18.6426 69.6593 17.5693C68.8709 16.4381 68.4216 15.6647 68.3128 15.249H68.2468C68.3151 15.8476 68.3498 16.3906 68.3498 16.8758C68.3498 17.5519 68.3684 18.3763 68.4066 19.3477H67.397C67.4375 18.499 67.4583 17.567 67.4583 16.5504C67.4583 15.5512 67.4375 14.7014 67.397 13.9998H68.6161C68.6161 14.1457 68.9542 14.7246 69.6315 15.7376C70.3517 16.8132 70.765 17.5438 70.8715 17.927H70.9329C70.8669 17.3157 70.8345 16.7681 70.8345 16.2841C70.8345 15.542 70.8148 14.7801 70.7766 13.9998H71.8036C71.7654 14.6794 71.7468 15.5292 71.7468 16.5504C71.7468 17.5808 71.7654 18.5129 71.8036 19.3477" fill="white"/>
<path d="M76.6361 16.6667C76.6361 16.1399 76.4833 15.6976 76.1764 15.3375C75.8696 14.9775 75.4018 14.798 74.772 14.798C74.6539 14.798 74.493 14.8096 74.2869 14.8339C74.3147 15.3815 74.3286 15.9546 74.3286 16.5509C74.3286 17.2062 74.3425 17.8546 74.3691 18.4983C74.5474 18.5342 74.7257 18.5516 74.9029 18.5516C75.4922 18.5516 75.9286 18.3687 76.2111 18.0028C76.4948 17.6369 76.6361 17.1923 76.6361 16.6667V16.6667ZM77.758 16.4896C77.758 17.2676 77.5091 17.9461 77.01 18.5273C76.5122 19.1073 75.814 19.3979 74.9156 19.3979C74.5103 19.3979 73.9523 19.3817 73.2402 19.3482C73.275 18.5215 73.2935 17.5895 73.2935 16.5509C73.2935 15.5552 73.275 14.7042 73.2402 14.0003H73.9581C74.0762 14.0003 74.251 13.9968 74.4849 13.9887C74.7164 13.9794 74.8693 13.976 74.9399 13.976C75.9286 13.976 76.6453 14.2226 77.0899 14.7158C77.5357 15.2079 77.758 15.7995 77.758 16.4896Z" fill="white"/>
<path d="M81.7066 15.5686C81.7066 15.0244 81.3558 14.7523 80.6542 14.7523C80.3972 14.7523 80.1702 14.7709 79.9734 14.8091C80.0035 15.234 80.0186 15.7863 80.0186 16.4682C80.1691 16.474 80.2964 16.4763 80.4006 16.4763C81.2713 16.4763 81.7066 16.1741 81.7066 15.5686ZM83.2465 19.3477H82.0308C81.7124 18.3786 81.4693 17.78 81.2991 17.5531C81.13 17.3261 80.8556 17.2115 80.4782 17.2115C80.3196 17.2115 80.1668 17.2138 80.022 17.2161C80.022 17.9201 80.0348 18.631 80.0591 19.3477H78.9175C78.9534 18.521 78.9707 17.589 78.9707 16.5504C78.9707 15.5547 78.9534 14.7037 78.9175 13.9998H79.6284C79.7106 13.9998 79.8819 13.9963 80.1436 13.9882C80.4053 13.9789 80.6461 13.9755 80.8684 13.9755C82.1246 13.9755 82.7533 14.405 82.7533 15.2652C82.7533 15.9472 82.3944 16.4219 81.6777 16.6905V16.7519C81.9544 16.8283 82.1964 17.0448 82.4048 17.3991C82.612 17.7534 82.8934 18.4029 83.2465 19.3477Z" fill="white"/>
<path d="M88.0004 16.6942C88.0004 16.1223 87.8534 15.658 87.5604 15.3025C87.2675 14.9471 86.9063 14.7688 86.4767 14.7688C86.0761 14.7688 85.7369 14.9482 85.4579 15.3072C85.1788 15.6649 85.0387 16.1188 85.0387 16.6664C85.0387 17.2361 85.1858 17.6992 85.481 18.0569C85.7751 18.4135 86.1352 18.5918 86.5624 18.5918C86.963 18.5918 87.3023 18.4124 87.5813 18.0523C87.8603 17.6922 88.0004 17.2395 88.0004 16.6942ZM89.1339 16.5761C89.1339 17.4167 88.8769 18.1137 88.3617 18.6659C87.8464 19.2194 87.2108 19.4961 86.4524 19.4961C85.7288 19.4961 85.1233 19.2414 84.637 18.7343C84.1495 18.226 83.9053 17.5811 83.9053 16.7972C83.9053 15.9567 84.1623 15.2597 84.6775 14.7074C85.1927 14.154 85.8284 13.8773 86.5879 13.8773C87.3104 13.8773 87.9159 14.1308 88.4033 14.6368C88.8896 15.1439 89.1339 15.79 89.1339 16.5761Z" fill="white"/>
<path d="M91.4564 19.3477H90.2939C90.3298 18.499 90.3472 17.567 90.3472 16.5504C90.3472 15.5512 90.3298 14.7014 90.2939 13.9998H91.4564C91.4205 14.6898 91.4031 15.5396 91.4031 16.5504C91.4031 17.5832 91.4205 18.5152 91.4564 19.3477Z" fill="white"/>
<path d="M96.2881 16.6667C96.2881 16.1399 96.1353 15.6976 95.8285 15.3375C95.5217 14.9775 95.0539 14.798 94.424 14.798C94.3059 14.798 94.1439 14.8096 93.9389 14.8339C93.9667 15.3815 93.9806 15.9546 93.9806 16.5509C93.9806 17.2062 93.9933 17.8546 94.0211 18.4983C94.1994 18.5342 94.3766 18.5516 94.5549 18.5516C95.1442 18.5516 95.5795 18.3687 95.8632 18.0028C96.1469 17.6369 96.2881 17.1923 96.2881 16.6667V16.6667ZM97.41 16.4896C97.41 17.2676 97.1599 17.9461 96.6621 18.5273C96.1642 19.1073 95.4649 19.3979 94.5676 19.3979C94.1624 19.3979 93.6032 19.3817 92.8911 19.3482C92.927 18.5215 92.9455 17.5895 92.9455 16.5509C92.9455 15.5552 92.927 14.7042 92.8911 14.0003H93.6101C93.7282 14.0003 93.903 13.9968 94.1358 13.9887C94.3685 13.9794 94.5213 13.976 94.5919 13.976C95.5807 13.976 96.2974 14.2226 96.742 14.7158C97.1866 15.2079 97.41 15.7995 97.41 16.4896Z" fill="white"/>
<path d="M103.41 17.0274C102.942 15.6149 102.707 14.8508 102.707 14.735H102.641C102.641 14.8415 102.399 15.6056 101.915 17.0274H103.41ZM105.307 19.3477H103.993C103.993 19.167 103.868 18.6553 103.619 17.8113H101.722C101.465 18.6414 101.335 19.1531 101.335 19.3477H100.1C100.1 19.2411 100.419 18.3647 101.058 16.7195C101.697 15.0731 102.017 14.1677 102.017 13.9998H103.57C103.57 14.1561 103.859 15.0499 104.439 16.6801C105.018 18.3103 105.307 19.1995 105.307 19.3477" fill="white"/>
<path d="M109.039 15.6265C109.039 15.0406 108.65 14.7477 107.872 14.7477C107.678 14.7477 107.473 14.7686 107.256 14.8091C107.286 15.3266 107.301 15.9125 107.301 16.5678C107.37 16.5724 107.45 16.5759 107.54 16.5759C108.539 16.5759 109.039 16.2598 109.039 15.6265V15.6265ZM110.099 15.4007C110.099 16.0549 109.855 16.5388 109.369 16.8503C108.884 17.1629 108.288 17.318 107.58 17.318C107.452 17.318 107.36 17.3157 107.306 17.3111C107.306 17.8252 107.321 18.5048 107.351 19.3477H106.197C106.232 18.5569 106.25 17.6237 106.25 16.5504C106.25 15.5651 106.232 14.7153 106.197 13.9998H106.911C107.012 13.9998 107.208 13.9963 107.495 13.9882C107.782 13.9789 108.031 13.9755 108.241 13.9755C108.762 13.9755 109.201 14.0936 109.56 14.3286C109.919 14.5648 110.099 14.9214 110.099 15.4007Z" fill="white"/>
<path d="M113.964 15.6265C113.964 15.0406 113.576 14.7477 112.798 14.7477C112.604 14.7477 112.398 14.7686 112.182 14.8091C112.213 15.3266 112.228 15.9125 112.228 16.5678C112.296 16.5724 112.376 16.5759 112.466 16.5759C113.465 16.5759 113.964 16.2598 113.964 15.6265V15.6265ZM115.025 15.4007C115.025 16.0549 114.782 16.5388 114.295 16.8503C113.809 17.1629 113.213 17.318 112.507 17.318C112.378 17.318 112.287 17.3157 112.231 17.3111C112.231 17.8252 112.246 18.5048 112.276 19.3477H111.123C111.158 18.5569 111.176 17.6237 111.176 16.5504C111.176 15.5651 111.158 14.7153 111.123 13.9998H111.837C111.938 13.9998 112.133 13.9963 112.421 13.9882C112.708 13.9789 112.957 13.9755 113.168 13.9755C113.688 13.9755 114.128 14.0936 114.486 14.3286C114.845 14.5648 115.025 14.9214 115.025 15.4007" fill="white"/>
<path d="M121.945 16.6942C121.945 16.1223 121.798 15.658 121.505 15.3025C121.212 14.9471 120.851 14.7688 120.422 14.7688C120.021 14.7688 119.682 14.9482 119.403 15.3072C119.124 15.6649 118.984 16.1188 118.984 16.6664C118.984 17.2361 119.131 17.6992 119.426 18.0569C119.72 18.4135 120.08 18.5918 120.507 18.5918C120.908 18.5918 121.247 18.4124 121.526 18.0523C121.805 17.6922 121.945 17.2395 121.945 16.6942ZM123.079 16.5761C123.079 17.4167 122.822 18.1137 122.306 18.6659C121.791 19.2194 121.154 19.4961 120.396 19.4961C119.674 19.4961 119.068 19.2414 118.581 18.7343C118.094 18.226 117.85 17.5811 117.85 16.7972C117.85 15.9567 118.107 15.2597 118.622 14.7074C119.138 14.154 119.773 13.8773 120.532 13.8773C121.255 13.8773 121.861 14.1308 122.347 14.6368C122.834 15.1439 123.079 15.79 123.079 16.5761Z" fill="white"/>
<path d="M128.644 19.3477H127.63C127.63 19.2353 127.254 18.6426 126.501 17.5693C125.712 16.4381 125.262 15.6647 125.154 15.249H125.088C125.156 15.8476 125.191 16.3906 125.191 16.8758C125.191 17.5519 125.209 18.3763 125.249 19.3477H124.238C124.278 18.499 124.299 17.567 124.299 16.5504C124.299 15.5512 124.278 14.7014 124.238 13.9998H125.457C125.457 14.1457 125.796 14.7246 126.472 15.7376C127.193 16.8132 127.606 17.5438 127.712 17.927H127.774C127.708 17.3157 127.675 16.7681 127.675 16.2841C127.675 15.542 127.657 14.7801 127.617 13.9998H128.644C128.606 14.6794 128.588 15.5292 128.588 16.5504C128.588 17.5808 128.606 18.5129 128.644 19.3477Z" fill="white"/>
<path d="M80.1921 36.4809C80.1921 39.1346 79.4048 41.2499 77.8302 42.8245C76.0426 44.7002 73.7154 45.6387 70.8487 45.6387C68.1058 45.6387 65.7752 44.6875 63.8555 42.7852C61.9347 40.8829 60.9761 38.5244 60.9761 35.711C60.9761 32.8987 61.9347 30.5402 63.8555 28.638C65.7752 26.7357 68.1058 25.7851 70.8487 25.7851C72.2114 25.7851 73.5116 26.0491 74.7516 26.5805C75.9893 27.112 76.9804 27.8206 77.7237 28.704L76.0518 30.377C74.7956 28.873 73.0612 28.1204 70.8487 28.1204C68.8491 28.1204 67.1205 28.8232 65.6605 30.2311C64.2005 31.6378 63.47 33.4648 63.47 35.711C63.47 37.9594 64.2005 39.7853 65.6605 41.1932C67.1205 42.5999 68.8491 43.3027 70.8487 43.3027C72.9721 43.3027 74.7423 42.5953 76.1572 41.1793C77.0776 40.2588 77.6079 38.9748 77.7491 37.3307H70.8487V35.0476H80.059C80.1481 35.5442 80.1921 36.0213 80.1921 36.4809Z" fill="white"/>
<path d="M84.9038 42.1206C85.7444 42.9797 86.7389 43.4092 87.8898 43.4092C89.0395 43.4092 90.0352 42.9797 90.8758 42.1206C91.7163 41.2626 92.1366 40.1268 92.1366 38.7108C92.1366 37.2948 91.7163 36.159 90.8758 35.3C90.0352 34.4409 89.0395 34.0136 87.8898 34.0136C86.7389 34.0136 85.7444 34.4409 84.9038 35.3C84.0633 36.159 83.643 37.2948 83.643 38.7108C83.643 40.1268 84.0633 41.2626 84.9038 42.1206ZM83.0861 33.7612C84.3423 32.4425 85.9435 31.7837 87.8898 31.7837C89.8361 31.7837 91.4373 32.4425 92.6947 33.7612C93.9509 35.0788 94.5784 36.7287 94.5784 38.7108C94.5784 40.693 93.9509 42.3429 92.6947 43.6609C91.4373 44.9792 89.8361 45.6387 87.8898 45.6387C85.9435 45.6387 84.3423 44.9792 83.0861 43.6609C81.8299 42.3429 81.2012 40.693 81.2012 38.7108C81.2012 36.7287 81.8299 35.0788 83.0861 33.7612Z" fill="white"/>
<path d="M99.1037 42.1206C99.9431 42.9797 100.939 43.4092 102.09 43.4092C103.239 43.4092 104.234 42.9797 105.076 42.1206C105.916 41.2626 106.336 40.1268 106.336 38.7108C106.336 37.2948 105.916 36.159 105.076 35.3C104.234 34.4409 103.239 34.0136 102.09 34.0136C100.939 34.0136 99.9431 34.4409 99.1037 35.3C98.262 36.159 97.8428 37.2948 97.8428 38.7108C97.8428 40.1268 98.262 41.2626 99.1037 42.1206ZM97.2848 33.7612C98.541 32.4425 100.142 31.7837 102.09 31.7837C104.035 31.7837 105.636 32.4425 106.893 33.7612C108.15 35.0788 108.777 36.7287 108.777 38.7108C108.777 40.693 108.15 42.3429 106.893 43.6609C105.636 44.9792 104.035 45.6387 102.09 45.6387C100.142 45.6387 98.541 44.9792 97.2848 43.6609C96.0286 42.3429 95.3999 40.693 95.3999 38.7108C95.3999 36.7287 96.0286 35.0788 97.2848 33.7612Z" fill="white"/>
<path d="M116.183 43.4092C117.333 43.4092 118.311 42.9843 119.116 42.1345C119.92 41.2858 120.323 40.1431 120.323 38.7109C120.323 37.2775 119.92 36.1371 119.116 35.2873C118.311 34.4374 117.333 34.0137 116.183 34.0137C115.049 34.0137 114.076 34.4409 113.263 35.3C112.449 36.1591 112.041 37.2949 112.041 38.7109C112.041 40.1269 112.449 41.2627 113.263 42.1206C114.076 42.9797 115.049 43.4092 116.183 43.4092ZM115.998 51.3711C114.457 51.3711 113.2 50.9867 112.228 50.2165C111.254 49.4467 110.555 48.5657 110.131 47.5752L112.361 46.6473C112.609 47.3536 113.064 47.9475 113.728 48.4246C114.391 48.9027 115.147 49.1415 115.998 49.1415C117.342 49.1415 118.399 48.7389 119.169 47.9339C119.939 47.1289 120.323 46.0366 120.323 44.6558V43.4092H120.217C119.792 44.0453 119.19 44.5768 118.412 45.001C117.634 45.4261 116.757 45.6387 115.785 45.6387C114.103 45.6387 112.653 44.9747 111.431 43.6474C110.21 42.3197 109.6 40.6745 109.6 38.7109C109.6 36.7472 110.21 35.1008 111.431 33.774C112.653 32.4472 114.103 31.7837 115.785 31.7837C116.757 31.7837 117.634 31.9956 118.412 32.4194C119.19 32.8454 119.792 33.3757 120.217 34.0137H120.323V32.2075H122.658V44.5497C122.658 46.7793 122.012 48.473 120.721 49.6331C119.429 50.7909 117.855 51.3711 115.998 51.3711" fill="white"/>
<path d="M127.41 45.2134H124.969V26.2087H127.41V45.2134Z" fill="white"/>
<path d="M138.982 37.1455C138.929 36.401 138.587 35.6948 137.959 35.0221C137.331 34.3482 136.398 34.0136 135.159 34.0136C134.257 34.0136 133.474 34.2961 132.811 34.8623C132.147 35.4285 131.691 36.1891 131.443 37.1455H138.982ZM135.478 45.6387C133.514 45.6387 131.917 44.9838 130.687 43.6735C129.458 42.3649 128.842 40.7104 128.842 38.7108C128.842 36.8167 129.439 35.19 130.634 33.8261C131.828 32.4645 133.355 31.7837 135.212 31.7837C137.141 31.7837 138.684 32.4124 139.843 33.6686C141.002 34.9248 141.582 36.606 141.582 38.7108L141.557 39.1624H131.285C131.354 40.4719 131.793 41.5069 132.598 42.2665C133.404 43.0271 134.345 43.4092 135.425 43.4092C137.177 43.4092 138.362 42.6647 138.982 41.1793L141.157 42.0812C140.734 43.0897 140.033 43.9359 139.061 44.6166C138.088 45.2972 136.893 45.6387 135.478 45.6387" fill="white"/>
<path d="M151.191 35.1806H155.278C156.304 35.1806 157.127 34.8344 157.747 34.1455C158.366 33.4554 158.677 32.6947 158.677 31.8623C158.677 31.031 158.366 30.2703 157.747 29.5803C157.127 28.8902 156.304 28.5452 155.278 28.5452H151.191V35.1806ZM151.191 45.2134H148.75V26.2087H155.225C156.836 26.2087 158.228 26.7448 159.406 27.8146C160.582 28.8867 161.17 30.2356 161.17 31.8623C161.17 33.4902 160.582 34.8402 159.406 35.91C158.228 36.9809 156.836 37.5158 155.225 37.5158H151.191V45.2134" fill="white"/>
<path d="M165.205 45.2134H162.763V26.2087H165.205V45.2134Z" fill="white"/>
<path d="M171.892 43.4092C172.9 43.4092 173.816 43.0318 174.639 42.2803C175.463 41.5289 175.873 40.6397 175.873 39.6128C175.184 39.0466 174.149 38.7641 172.768 38.7641C171.582 38.7641 170.689 39.0211 170.087 39.5329C169.486 40.0469 169.185 40.6478 169.185 41.3391C169.185 41.9758 169.458 42.4795 170.008 42.8511C170.556 43.2216 171.185 43.4092 171.892 43.4092V43.4092ZM171.494 45.6387C170.114 45.6387 168.959 45.2393 168.031 44.4434C167.101 43.6474 166.637 42.5953 166.637 41.2858C166.637 39.8698 167.184 38.7595 168.283 37.9548C169.38 37.1501 170.733 36.7472 172.344 36.7472C173.777 36.7472 174.953 37.0112 175.873 37.5426V37.171C175.873 36.2158 175.546 35.4505 174.892 34.875C174.237 34.3008 173.432 34.0136 172.477 34.0136C171.768 34.0136 171.127 34.1815 170.552 34.5173C169.977 34.853 169.583 35.3139 169.37 35.8974L167.14 34.941C167.441 34.163 168.034 33.4417 168.919 32.7783C169.803 32.1148 170.972 31.7837 172.423 31.7837C174.086 31.7837 175.466 32.27 176.564 33.2425C177.66 34.2163 178.209 35.5883 178.209 37.3574V45.2135H175.873V43.4092H175.768C174.795 44.8947 173.369 45.6387 171.494 45.6387" fill="white"/>
<path d="M183.52 50.9458H180.998L184.023 44.3902L178.663 32.2072H181.316L185.191 41.5507H185.245L189.013 32.2072H191.667L183.52 50.9458" fill="white"/>
<path d="M15.4309 35.3892C15.4309 29.3188 15.4332 23.2485 15.4274 17.1793C15.4274 16.4337 15.5721 15.754 16.1001 15.1913C16.305 14.9725 16.452 14.9135 16.7044 15.1705C20.788 19.3386 24.882 23.4962 28.976 27.6551C31.6262 30.3481 34.2753 33.0423 36.937 35.725C37.1952 35.9855 37.2184 36.1221 36.9451 36.3942C30.4348 42.8663 23.9303 49.3455 17.4443 55.841C17.0472 56.2381 16.7693 56.1959 16.3895 55.9034C15.6937 55.3688 15.4274 54.6524 15.4285 53.7999C15.4297 50.2048 15.4228 46.6093 15.4204 43.0145C15.4193 40.4719 15.4204 37.9306 15.4204 35.3892C15.4239 35.3892 15.4274 35.3892 15.4309 35.3892" fill="white"/>
<path d="M17.7632 14.4975C18.2599 14.494 18.6095 14.6376 18.9476 14.8263C27.2606 19.4853 35.5725 24.1455 43.8913 28.794C44.2734 29.0071 44.2653 29.1275 43.97 29.4169C42.1106 31.2463 40.2662 33.0907 38.423 34.9362C38.2239 35.1353 38.1035 35.25 37.836 34.979C31.2226 28.2325 24.5989 21.4976 17.9774 14.7603C17.9218 14.7036 17.8755 14.6364 17.7632 14.4975" fill="white"/>
<path d="M19.6245 55.6865C25.659 49.5872 31.6969 43.4924 37.7175 37.3792C38.0903 36.9995 38.2651 37.0504 38.5997 37.3989C40.1292 38.9909 41.6807 40.562 43.2391 42.1251C43.5135 42.4006 43.5366 42.5129 43.1649 42.7167C35.4181 46.9568 27.6782 51.21 19.9371 55.459C19.8098 55.5287 19.6905 55.644 19.6245 55.6865" fill="white"/>
<path d="M54.0949 35.5583C54.0694 36.2426 53.7463 36.7219 53.2577 37.082C52.8965 37.3483 52.4982 37.5682 52.1034 37.7859C49.7612 39.0815 47.4132 40.3632 45.0756 41.6669C44.7606 41.8429 44.5731 41.8347 44.3126 41.565C42.6488 39.8468 40.97 38.1425 39.2819 36.4475C39.0365 36.2009 39.0295 36.0654 39.2819 35.8176C41.2479 33.8806 43.2034 31.9332 45.1508 29.9765C45.3801 29.7461 45.5445 29.7195 45.8305 29.8816C48.1437 31.1934 50.4686 32.4855 52.7877 33.7857C53.5055 34.1875 54.0636 34.7085 54.0949 35.5583" fill="white"/>
</svg>
