<svg width="90" height="90" viewBox="0 0 90 90" fill="none" xmlns="http://www.w3.org/2000/svg">
<g clip-path="url(#clip0)">
<path d="M61.6937 35.9469C61.6937 40.4293 58.0965 44.0631 53.6589 44.0631H36.3414C31.904 44.0631 28.3066 40.4293 28.3066 35.9469V16.8627C28.3068 7.54963 35.7807 0 45.0002 0C54.2198 0 61.6937 7.54963 61.6937 16.8627V35.9469Z" fill="#6E4848"/>
<path d="M44.8302 0C44.042 0 43.2672 0.0553711 42.5078 0.159961C50.7217 1.29164 57.0483 8.33766 57.0483 16.8627V35.9471C57.0483 40.1449 53.8394 43.6518 49.7532 44.0735L53.5768 44.0633C58.0592 44.0633 61.6929 40.4295 61.6929 35.9471V16.8627C61.6928 7.54963 54.1431 0 44.8302 0V0Z" fill="#633C3E"/>
<path d="M28.456 77.4582C21.9805 77.4594 16.7305 72.2104 16.7305 65.735V59.8025C16.7305 55.7087 19.1842 52.0136 22.9575 50.4256L44.9998 40.842L67.2169 50.3646C70.8964 51.9952 73.2689 55.6414 73.2689 59.6659V65.7288C73.2689 72.2025 68.0215 77.451 61.5478 77.452L28.456 77.4582Z" fill="#FEE07D"/>
<path d="M45.0003 40.842L31.8066 46.5783V46.5787L44.3831 57.5655C44.8301 57.9561 45.497 57.9563 45.9442 57.5659L58.4822 46.6214L58.4823 46.6205L45.0003 40.842Z" fill="#FFC269"/>
<path d="M52.7986 44.2392L44.9972 51.0491L37.2012 44.2392V36.8727H52.7986V44.2392Z" fill="#F7D4AD"/>
<path d="M59.8194 27.0972H57.3906V19.642H59.8194C60.8546 19.642 61.6939 20.4811 61.6939 21.5165V25.2228C61.6937 26.258 60.8546 27.0972 59.8194 27.0972Z" fill="#ECBD83"/>
<path d="M30.1812 27.0972H32.6099V19.642H30.1812C29.146 19.642 28.3066 20.4811 28.3066 21.5165V25.2228C28.3068 26.258 29.146 27.0972 30.1812 27.0972Z" fill="#ECBD83"/>
<path d="M28.4565 77.4582L29.3602 77.458V61.3398C29.3602 60.5894 28.752 59.981 28.0014 59.981C27.2508 59.981 26.6426 60.5894 26.6426 61.3398V77.3183C27.2339 77.41 27.8395 77.4582 28.4565 77.4582Z" fill="#FFEECC"/>
<path d="M61.5489 77.4521C62.1759 77.4521 62.7909 77.4014 63.3914 77.3065V61.3398C63.3914 60.5894 62.7832 59.981 62.0326 59.981C61.282 59.981 60.6738 60.5894 60.6738 61.3398V77.4522L61.5489 77.4521Z" fill="#FFEECC"/>
<path d="M37.2012 39.7005C39.3304 41.4271 42.0427 42.4633 44.9981 42.4633C47.9553 42.4633 50.6688 41.4257 52.7988 39.6967V36.8727H37.2012V39.7005Z" fill="#ECBD83"/>
<path d="M57.3871 19.642V27.4315C57.3871 34.242 51.9683 39.918 45.1584 40.0039C38.2405 40.0913 32.6074 34.5103 32.6074 27.6144V19.642C33.0442 19.5711 34.2798 19.3117 35.313 18.2392C35.6535 17.8857 35.9 17.5189 36.0784 17.1837L37.2804 12.2219C37.6211 10.8158 39.233 10.15 40.4668 10.9055L52.7985 18.4584L57.3871 19.642Z" fill="#F7D4AD"/>
<path d="M57.3869 19.642C55.985 20.0503 54.5014 20.2697 52.9669 20.2697C45.9607 20.2697 40.0214 15.6983 37.9697 9.37616C39.7917 9.07733 43.7587 8.69747 48.0314 10.5901C51.6794 12.2061 53.8547 14.7275 54.8783 15.9402C56.0669 17.3484 56.8696 18.6734 57.3869 19.642Z" fill="#6E4848"/>
<path d="M45.0215 90C51.9499 90 57.5665 84.3834 57.5665 77.455C57.5665 70.5266 51.9499 64.91 45.0215 64.91C38.0931 64.91 32.4766 70.5266 32.4766 77.455C32.4766 84.3834 38.0931 90 45.0215 90Z" fill="#B2E59F"/>
<path d="M45.0216 64.9102C44.3108 64.9102 43.615 64.9724 42.9365 65.086C48.8719 66.0795 53.3964 71.2376 53.3964 77.4552C53.3964 83.6727 48.8719 88.8309 42.9365 89.8244C43.615 89.9379 44.311 90.0001 45.0216 90.0001C51.9499 90.0001 57.5664 84.3836 57.5664 77.4554C57.5664 70.5271 51.95 64.9102 45.0216 64.9102Z" fill="#95D5A4"/>
<path d="M42.1717 82.9821C41.824 82.9821 41.4761 82.8494 41.2108 82.5841L38.4312 79.8046C37.9005 79.274 37.9005 78.4137 38.4312 77.883C38.9621 77.3523 39.8222 77.3523 40.353 77.883L42.1717 79.7018L49.0161 72.8572C49.5469 72.3266 50.407 72.3266 50.9379 72.8572C51.4686 73.3879 51.4686 74.2482 50.9379 74.7789L43.1325 82.5843C42.8671 82.8495 42.5194 82.9821 42.1717 82.9821Z" fill="white"/>
</g>
<defs>
<clipPath id="clip0">
<rect width="90" height="90" fill="white"/>
</clipPath>
</defs>
</svg>
